<svg width="1430" height="164" viewBox="0 0 1430 164" fill="none" xmlns="http://www.w3.org/2000/svg">
<mask id="path-1-outside-1" maskUnits="userSpaceOnUse" x="-0.00366211" y="0.368896" width="1430" height="164" fill="black">
<rect fill="white" x="-0.00366211" y="0.368896" width="1430" height="164"/>
<path d="M23.9756 152.34H105.676L58.6096 22.906L9.10075 159H1.99634L58.6096 3.3689L115.223 159H23.9756V152.34Z"/>
<path d="M152.054 152.34H224.431L178.918 45.1073L130.519 159H123.415L178.918 28.0123L234.421 159H152.054V152.34Z"/>
<path d="M313.921 94.3942L344.115 159H336.788L305.706 92.3961C306.002 92.248 307.261 91.656 309.481 90.6199C311.849 89.4359 313.477 88.6218 314.365 88.1778C315.253 87.5858 316.733 86.6237 318.805 85.2916C320.877 83.9596 322.431 82.7015 323.467 81.5174C324.504 80.1853 325.614 78.7053 326.798 77.0772C328.13 75.3011 329.092 73.377 329.684 71.3048C330.276 69.0847 330.572 66.7166 330.572 64.2004C330.572 54.8759 326.132 47.9935 317.251 43.5532C308.371 39.113 297.344 36.8928 284.171 36.8928H266.41V159H259.75V30.2324H284.171C301.636 30.2324 314.809 33.2666 323.689 39.335C332.718 45.4033 337.232 53.6918 337.232 64.2004C337.232 71.0088 334.938 77.0772 330.35 82.4055C325.762 87.5858 320.285 91.582 313.921 94.3942Z"/>
<path d="M439.053 37.1149C434.021 35.4868 427.804 34.6727 420.404 34.6727C413.003 34.6727 406.787 35.4868 401.755 37.1149C396.722 38.5949 392.06 41.4811 387.768 45.7733C383.624 49.9176 380.516 56.0599 378.443 64.2004C376.371 72.1929 375.335 82.3315 375.335 94.6162C375.335 106.901 376.371 117.113 378.443 125.254C380.516 133.246 383.624 139.389 387.768 143.681C392.06 147.825 396.722 150.711 401.755 152.34C406.787 153.82 413.003 154.56 420.404 154.56C427.804 154.56 434.021 153.82 439.053 152.34C444.085 150.711 448.673 147.825 452.818 143.681C457.11 139.389 460.292 133.246 462.364 125.254C464.436 117.113 465.472 106.901 465.472 94.6162C465.472 82.3315 464.436 72.1929 462.364 64.2004C460.292 56.0599 457.11 49.9176 452.818 45.7733C448.673 41.4811 444.085 38.5949 439.053 37.1149ZM460.144 145.457C452.152 155.966 438.905 161.22 420.404 161.22C401.903 161.22 388.656 155.966 380.664 145.457C372.671 134.949 368.675 118.002 368.675 94.6162C368.675 71.2308 372.671 54.2838 380.664 43.7752C388.656 33.2666 401.903 28.0123 420.404 28.0123C438.905 28.0123 452.152 33.2666 460.144 43.7752C468.137 54.2838 472.133 71.2308 472.133 94.6162C472.133 118.002 468.137 134.949 460.144 145.457Z"/>
<path d="M508.864 159V30.2324H515.524L587.9 146.789V30.2324H594.561V159H587.9L515.524 42.2211V159H508.864Z"/>
<path d="M795.503 3.59091V10.2513H743.33V159H736.67V10.2513H684.497V3.59091H795.503Z"/>
<path d="M884.813 37.1149C879.781 35.4868 873.564 34.6727 866.164 34.6727C858.764 34.6727 852.547 35.4868 847.515 37.1149C842.483 38.5949 837.82 41.4811 833.528 45.7733C829.384 49.9176 826.276 56.0599 824.204 64.2004C822.131 72.1929 821.095 82.3315 821.095 94.6162C821.095 106.901 822.131 117.113 824.204 125.254C826.276 133.246 829.384 139.389 833.528 143.681C837.82 147.825 842.483 150.711 847.515 152.34C852.547 153.82 858.764 154.56 866.164 154.56C873.564 154.56 879.781 153.82 884.813 152.34C889.845 150.711 894.434 147.825 898.578 143.681C902.87 139.389 906.052 133.246 908.124 125.254C910.197 117.113 911.233 106.901 911.233 94.6162C911.233 82.3315 910.197 72.1929 908.124 64.2004C906.052 56.0599 902.87 49.9176 898.578 45.7733C894.434 41.4811 889.845 38.5949 884.813 37.1149ZM905.904 145.457C897.912 155.966 884.665 161.22 866.164 161.22C847.663 161.22 834.416 155.966 826.424 145.457C818.431 134.949 814.435 118.002 814.435 94.6162C814.435 71.2308 818.431 54.2838 826.424 43.7752C834.416 33.2666 847.663 28.0123 866.164 28.0123C884.665 28.0123 897.912 33.2666 905.904 43.7752C913.897 54.2838 917.893 71.2308 917.893 94.6162C917.893 118.002 913.897 134.949 905.904 145.457Z"/>
<path d="M1028.78 152.34V159H954.624V30.2324H961.284V152.34H1028.78Z"/>
<path d="M1054.36 30.2324H1061.02V159H1054.36V30.2324Z"/>
<path d="M1197.05 30.2324L1141.55 161.22L1086.04 30.2324H1093.15L1141.55 144.125L1189.95 30.2324H1197.05Z"/>
<path d="M1308.31 145.901C1300.17 156.114 1286.85 161.22 1268.35 161.22C1249.84 161.22 1236.6 155.966 1228.61 145.457C1220.61 134.949 1216.62 118.002 1216.62 94.6162C1216.62 71.2308 1220.61 54.2838 1228.61 43.7752C1236.6 33.2666 1249.84 28.0123 1268.35 28.0123C1289.81 28.0123 1304.39 35.0427 1312.08 49.1035L1257.69 94.6162H1247.25L1303.42 47.7715C1296.91 39.039 1285.22 34.6727 1268.35 34.6727C1260.95 34.6727 1254.73 35.4868 1249.7 37.1149C1244.66 38.5949 1240 41.4811 1235.71 45.7733C1231.57 49.9176 1228.46 56.0599 1226.39 64.2004C1224.31 72.1929 1223.28 82.3315 1223.28 94.6162C1223.28 106.901 1224.31 117.113 1226.39 125.254C1228.46 133.246 1231.57 139.389 1235.71 143.681C1240 147.825 1244.66 150.711 1249.7 152.34C1254.73 153.82 1260.95 154.56 1268.35 154.56C1285.22 154.56 1296.91 150.193 1303.42 141.461L1308.31 145.901Z"/>
<path d="M1397.97 94.3942L1428.16 159H1420.84L1389.75 92.3961C1390.05 92.248 1391.31 91.656 1393.53 90.6199C1395.9 89.4359 1397.52 88.6218 1398.41 88.1778C1399.3 87.5858 1400.78 86.6237 1402.85 85.2916C1404.92 83.9596 1406.48 82.7015 1407.51 81.5174C1408.55 80.1853 1409.66 78.7053 1410.84 77.0772C1412.18 75.3011 1413.14 73.377 1413.73 71.3048C1414.32 69.0847 1414.62 66.7166 1414.62 64.2004C1414.62 54.8759 1410.18 47.9935 1401.3 43.5532C1392.42 39.113 1381.39 36.8928 1368.22 36.8928H1350.46V159H1343.8V30.2324H1368.22C1385.68 30.2324 1398.86 33.2666 1407.74 39.335C1416.77 45.4033 1421.28 53.6918 1421.28 64.2004C1421.28 71.0088 1418.99 77.0772 1414.4 82.4055C1409.81 87.5858 1404.33 91.582 1397.97 94.3942Z"/>
</mask>
<path d="M23.9756 152.34H105.676L58.6096 22.906L9.10075 159H1.99634L58.6096 3.3689L115.223 159H23.9756V152.34Z" stroke="#8CC2D3" stroke-width="2" mask="url(#path-1-outside-1)"/>
<path d="M152.054 152.34H224.431L178.918 45.1073L130.519 159H123.415L178.918 28.0123L234.421 159H152.054V152.34Z" stroke="#8CC2D3" stroke-width="2" mask="url(#path-1-outside-1)"/>
<path d="M313.921 94.3942L344.115 159H336.788L305.706 92.3961C306.002 92.248 307.261 91.656 309.481 90.6199C311.849 89.4359 313.477 88.6218 314.365 88.1778C315.253 87.5858 316.733 86.6237 318.805 85.2916C320.877 83.9596 322.431 82.7015 323.467 81.5174C324.504 80.1853 325.614 78.7053 326.798 77.0772C328.13 75.3011 329.092 73.377 329.684 71.3048C330.276 69.0847 330.572 66.7166 330.572 64.2004C330.572 54.8759 326.132 47.9935 317.251 43.5532C308.371 39.113 297.344 36.8928 284.171 36.8928H266.41V159H259.75V30.2324H284.171C301.636 30.2324 314.809 33.2666 323.689 39.335C332.718 45.4033 337.232 53.6918 337.232 64.2004C337.232 71.0088 334.938 77.0772 330.35 82.4055C325.762 87.5858 320.285 91.582 313.921 94.3942Z" stroke="#8CC2D3" stroke-width="2" mask="url(#path-1-outside-1)"/>
<path d="M439.053 37.1149C434.021 35.4868 427.804 34.6727 420.404 34.6727C413.003 34.6727 406.787 35.4868 401.755 37.1149C396.722 38.5949 392.06 41.4811 387.768 45.7733C383.624 49.9176 380.516 56.0599 378.443 64.2004C376.371 72.1929 375.335 82.3315 375.335 94.6162C375.335 106.901 376.371 117.113 378.443 125.254C380.516 133.246 383.624 139.389 387.768 143.681C392.06 147.825 396.722 150.711 401.755 152.34C406.787 153.82 413.003 154.56 420.404 154.56C427.804 154.56 434.021 153.82 439.053 152.34C444.085 150.711 448.673 147.825 452.818 143.681C457.11 139.389 460.292 133.246 462.364 125.254C464.436 117.113 465.472 106.901 465.472 94.6162C465.472 82.3315 464.436 72.1929 462.364 64.2004C460.292 56.0599 457.11 49.9176 452.818 45.7733C448.673 41.4811 444.085 38.5949 439.053 37.1149ZM460.144 145.457C452.152 155.966 438.905 161.22 420.404 161.22C401.903 161.22 388.656 155.966 380.664 145.457C372.671 134.949 368.675 118.002 368.675 94.6162C368.675 71.2308 372.671 54.2838 380.664 43.7752C388.656 33.2666 401.903 28.0123 420.404 28.0123C438.905 28.0123 452.152 33.2666 460.144 43.7752C468.137 54.2838 472.133 71.2308 472.133 94.6162C472.133 118.002 468.137 134.949 460.144 145.457Z" stroke="#8CC2D3" stroke-width="2" mask="url(#path-1-outside-1)"/>
<path d="M508.864 159V30.2324H515.524L587.9 146.789V30.2324H594.561V159H587.9L515.524 42.2211V159H508.864Z" stroke="#8CC2D3" stroke-width="2" mask="url(#path-1-outside-1)"/>
<path d="M795.503 3.59091V10.2513H743.33V159H736.67V10.2513H684.497V3.59091H795.503Z" stroke="#8CC2D3" stroke-width="2" mask="url(#path-1-outside-1)"/>
<path d="M884.813 37.1149C879.781 35.4868 873.564 34.6727 866.164 34.6727C858.764 34.6727 852.547 35.4868 847.515 37.1149C842.483 38.5949 837.82 41.4811 833.528 45.7733C829.384 49.9176 826.276 56.0599 824.204 64.2004C822.131 72.1929 821.095 82.3315 821.095 94.6162C821.095 106.901 822.131 117.113 824.204 125.254C826.276 133.246 829.384 139.389 833.528 143.681C837.82 147.825 842.483 150.711 847.515 152.34C852.547 153.82 858.764 154.56 866.164 154.56C873.564 154.56 879.781 153.82 884.813 152.34C889.845 150.711 894.434 147.825 898.578 143.681C902.87 139.389 906.052 133.246 908.124 125.254C910.197 117.113 911.233 106.901 911.233 94.6162C911.233 82.3315 910.197 72.1929 908.124 64.2004C906.052 56.0599 902.87 49.9176 898.578 45.7733C894.434 41.4811 889.845 38.5949 884.813 37.1149ZM905.904 145.457C897.912 155.966 884.665 161.22 866.164 161.22C847.663 161.22 834.416 155.966 826.424 145.457C818.431 134.949 814.435 118.002 814.435 94.6162C814.435 71.2308 818.431 54.2838 826.424 43.7752C834.416 33.2666 847.663 28.0123 866.164 28.0123C884.665 28.0123 897.912 33.2666 905.904 43.7752C913.897 54.2838 917.893 71.2308 917.893 94.6162C917.893 118.002 913.897 134.949 905.904 145.457Z" stroke="#8CC2D3" stroke-width="2" mask="url(#path-1-outside-1)"/>
<path d="M1028.78 152.34V159H954.624V30.2324H961.284V152.34H1028.78Z" stroke="#8CC2D3" stroke-width="2" mask="url(#path-1-outside-1)"/>
<path d="M1054.36 30.2324H1061.02V159H1054.36V30.2324Z" stroke="#8CC2D3" stroke-width="2" mask="url(#path-1-outside-1)"/>
<path d="M1197.05 30.2324L1141.55 161.22L1086.04 30.2324H1093.15L1141.55 144.125L1189.95 30.2324H1197.05Z" stroke="#8CC2D3" stroke-width="2" mask="url(#path-1-outside-1)"/>
<path d="M1308.31 145.901C1300.17 156.114 1286.85 161.22 1268.35 161.22C1249.84 161.22 1236.6 155.966 1228.61 145.457C1220.61 134.949 1216.62 118.002 1216.62 94.6162C1216.62 71.2308 1220.61 54.2838 1228.61 43.7752C1236.6 33.2666 1249.84 28.0123 1268.35 28.0123C1289.81 28.0123 1304.39 35.0427 1312.08 49.1035L1257.69 94.6162H1247.25L1303.42 47.7715C1296.91 39.039 1285.22 34.6727 1268.35 34.6727C1260.95 34.6727 1254.73 35.4868 1249.7 37.1149C1244.66 38.5949 1240 41.4811 1235.71 45.7733C1231.57 49.9176 1228.46 56.0599 1226.39 64.2004C1224.31 72.1929 1223.28 82.3315 1223.28 94.6162C1223.28 106.901 1224.31 117.113 1226.39 125.254C1228.46 133.246 1231.57 139.389 1235.71 143.681C1240 147.825 1244.66 150.711 1249.7 152.34C1254.73 153.82 1260.95 154.56 1268.35 154.56C1285.22 154.56 1296.91 150.193 1303.42 141.461L1308.31 145.901Z" stroke="#8CC2D3" stroke-width="2" mask="url(#path-1-outside-1)"/>
<path d="M1397.97 94.3942L1428.16 159H1420.84L1389.75 92.3961C1390.05 92.248 1391.31 91.656 1393.53 90.6199C1395.9 89.4359 1397.52 88.6218 1398.41 88.1778C1399.3 87.5858 1400.78 86.6237 1402.85 85.2916C1404.92 83.9596 1406.48 82.7015 1407.51 81.5174C1408.55 80.1853 1409.66 78.7053 1410.84 77.0772C1412.18 75.3011 1413.14 73.377 1413.73 71.3048C1414.32 69.0847 1414.62 66.7166 1414.62 64.2004C1414.62 54.8759 1410.18 47.9935 1401.3 43.5532C1392.42 39.113 1381.39 36.8928 1368.22 36.8928H1350.46V159H1343.8V30.2324H1368.22C1385.68 30.2324 1398.86 33.2666 1407.74 39.335C1416.77 45.4033 1421.28 53.6918 1421.28 64.2004C1421.28 71.0088 1418.99 77.0772 1414.4 82.4055C1409.81 87.5858 1404.33 91.582 1397.97 94.3942Z" stroke="#8CC2D3" stroke-width="2" mask="url(#path-1-outside-1)"/>
</svg>
