<svg width="0" height="0" class="hidden">
  <symbol viewBox="0 0 478 142" fill="none" xmlns="http://www.w3.org/2000/svg" id="first">
    <path d="M32.64 129.327h-1v8.661h84.876l-.589-1.391L60.424 5.61l-.92-2.173-.921 2.173L3.079 136.597l-.589 1.391h9.276l.259-.609L59.503 25.653l44.002 103.674H32.64zm192.966 7.237l-29.766-63.69a48.072 48.072 0 0 0 15.844-11.818l.009-.01c4.739-5.504 7.124-11.802 7.124-18.858 0-10.854-4.69-19.447-13.981-25.693-9.121-6.231-22.529-9.275-40.08-9.275h-25.421v130.768h8.66V15.88h16.761c13.066 0 23.929 2.203 32.633 6.555 4.314 2.157 7.493 4.878 9.598 8.14 2.102 3.258 3.17 7.116 3.17 11.613 0 2.434-.286 4.712-.852 6.838a16.636 16.636 0 0 1-2.722 5.439l-.005.006-.004.006a170.557 170.557 0 0 1-3.293 4.39c-.95 1.08-2.412 2.273-4.431 3.571a376.13 376.13 0 0 0-4.403 2.86l-4.817 2.41a321.685 321.685 0 0 0-3.786 1.781l-.87.436.411.882 31.082 66.603.27.578h9.534l-.665-1.424zm93.724-120.51l.013.004.013.004c4.844 1.425 9.287 4.209 13.328 8.394l.012.012.012.012c4.115 3.973 7.228 9.924 9.272 17.955l.001.004c2.044 7.881 3.077 17.928 3.077 30.165 0 12.235-1.033 22.357-3.077 30.389-2.043 7.878-5.157 13.84-9.285 17.969-4.041 4.041-8.492 6.835-13.353 8.41-4.91 1.442-11.02 2.175-18.354 2.175s-13.444-.733-18.354-2.175c-4.86-1.575-9.385-4.368-13.574-8.41-3.982-4.129-7.021-10.092-9.064-17.969-2.044-8.032-3.077-18.154-3.077-30.39s1.033-22.283 3.077-30.164l.001-.004c2.046-8.038 5.089-13.993 9.062-17.967 4.193-4.192 8.714-6.98 13.562-8.406l.013-.004.013-.004c4.902-1.586 11.007-2.394 18.341-2.394 7.334 0 13.439.808 18.341 2.394zm69.119 120.934v1h8.66V23.721l70.527 113.793.293.474h8.217V7.22h-8.66v114.051L396.959 7.693l-.293-.473h-8.217v129.768zm-87.46 3.22c18.68 0 32.287-5.311 40.536-16.158 8.194-10.773 12.193-27.992 12.193-51.446 0-23.454-3.999-40.674-12.193-51.447C333.276 10.311 319.669 5 300.989 5s-32.286 5.31-40.536 16.157C252.259 31.93 248.26 49.15 248.26 72.605c0 23.454 3.999 40.673 12.193 51.446 8.25 10.847 21.856 16.158 40.536 16.158z"
      stroke="#DDD" stroke-width="2"></path>
  </symbol>
</svg>