<svg width="0" height="0" class="hidden">
  <symbol viewBox="0 0 620 141" fill="none" xmlns="http://www.w3.org/2000/svg" id="last">
    <path d="M72.611 12.066l.013.005.013.003c4.844 1.425 9.287 4.21 13.328 8.394l.012.013.012.012c4.115 3.973 7.228 9.924 9.272 17.954l.001.005c2.044 7.88 3.077 17.927 3.077 30.164 0 12.235-1.033 22.357-3.077 30.39-2.043 7.878-5.157 13.84-9.285 17.968-4.041 4.041-8.492 6.835-13.353 8.41-4.91 1.442-11.02 2.176-18.354 2.176s-13.445-.734-18.354-2.176c-4.86-1.575-9.385-4.368-13.575-8.41-3.98-4.129-7.02-10.091-9.063-17.969-2.044-8.031-3.077-18.154-3.077-30.389 0-12.237 1.033-22.283 3.077-30.164v-.005c2.047-8.037 5.09-13.993 9.063-17.966 4.193-4.193 8.714-6.98 13.562-8.407l.013-.003.013-.005C40.83 10.48 46.936 9.673 54.27 9.673c7.334 0 13.44.807 18.341 2.393zM217.882 126.34v-1H150.39V3.233h-8.66V134h76.152v-7.66zm24.58-123.107h-1V134h8.661V3.233h-7.661zm143.615 1.39l.589-1.39h-9.276l-.259.608-47.478 111.727L282.174 3.841l-.259-.608h-9.275l.589 1.39 55.503 130.987.921 2.173.92-2.173L386.077 4.623zm111.119 115.902l.584-.733-.694-.631-4.884-4.44-.815-.741-.659.883c-6.238 8.365-17.542 12.697-34.276 12.697-7.335 0-13.445-.734-18.354-2.176-4.86-1.575-9.385-4.368-13.575-8.41-3.981-4.129-7.021-10.091-9.063-17.969-2.045-8.032-3.077-18.154-3.077-30.389 0-12.237 1.033-22.283 3.076-30.164l.001-.005c2.046-8.037 5.089-13.993 9.063-17.966 4.192-4.193 8.713-6.98 13.562-8.407l.012-.003.013-.005c4.902-1.586 11.007-2.393 18.342-2.393 16.228 0 27.349 4.074 33.696 11.949L434.72 67.848l-2.12 1.768h13.558l.279-.233 54.393-45.512.629-.527-.394-.72c-7.931-14.49-22.929-21.612-44.613-21.612-18.681 0-32.287 5.311-40.537 16.158-8.193 10.773-12.192 27.992-12.192 51.446 0 23.455 3.999 40.674 12.192 51.447 8.25 10.847 21.856 16.157 40.537 16.157 18.672 0 32.344-5.157 40.744-15.695zM414.491 38.2c2.072-8.14 5.18-14.282 9.325-18.427 4.292-4.292 8.954-7.178 13.986-8.658 5.033-1.628 11.249-2.442 18.65-2.442 16.872 0 28.565 4.366 35.078 13.099L414.491 38.2zm202.683 94.377l-29.766-63.69a48.08 48.08 0 0 0 15.844-11.818l.009-.01c4.739-5.504 7.124-11.802 7.124-18.858 0-10.855-4.69-19.448-13.982-25.694-9.121-6.231-22.529-9.274-40.079-9.274h-25.421V134h8.66V11.893h16.761c13.066 0 23.929 2.203 32.633 6.555 4.314 2.157 7.493 4.878 9.598 8.14 2.101 3.258 3.17 7.115 3.17 11.612 0 2.434-.286 4.712-.852 6.838a16.62 16.62 0 0 1-2.722 5.44l-.005.005-.004.006a172.793 172.793 0 0 1-3.293 4.392c-.95 1.08-2.412 2.272-4.431 3.57a374.796 374.796 0 0 0-4.403 2.86l-4.804 2.403-.012.005a315.693 315.693 0 0 0-3.787 1.783l-.87.435.411.882 31.082 66.604.27.577h9.534l-.665-1.423zM54.27 136.22c18.68 0 32.286-5.31 40.536-16.157C103 109.29 107 92.071 107 68.616c0-23.454-3.999-40.673-12.193-51.446C86.556 6.323 72.95 1.012 54.27 1.012S21.983 6.323 13.734 17.17C5.54 27.943 1.54 45.162 1.54 68.616c0 23.455 4 40.674 12.193 51.447 8.25 10.847 21.856 16.157 40.536 16.157z"
      stroke="#DDD" stroke-width="2"></path>
  </symbol>
</svg>