<svg width="0" height="0" class="hidden">
  <symbol viewBox="0 0 1430 164" fill="none" xmlns="http://www.w3.org/2000/svg" id="name">
    <mask id="a" maskUnits="userSpaceOnUse" x="-.004" y=".369" width="1430" height="164" fill="#000">
      <path fill="#fff" d="M-.004.369h1430v164h-1430z"></path>
      <path d="M23.976 152.34h81.7L58.61 22.906 9.1 159H1.997L58.61 3.369 115.223 159H23.976v-6.66zm128.078 0h72.377L178.918 45.107 130.519 159h-7.104l55.503-130.988L234.421 159h-82.367v-6.66zm161.867-57.946L344.115 159h-7.327l-31.082-66.604c.296-.148 1.555-.74 3.775-1.776l4.884-2.442a362.52 362.52 0 0 1 4.44-2.886c2.072-1.332 3.626-2.59 4.662-3.775a170.74 170.74 0 0 0 3.331-4.44 17.626 17.626 0 0 0 2.886-5.772c.592-2.22.888-4.588.888-7.105 0-9.324-4.44-16.207-13.321-20.647-8.88-4.44-19.907-6.66-33.08-6.66H266.41V159h-6.66V30.232h24.421c17.465 0 30.638 3.035 39.518 9.103 9.029 6.068 13.543 14.357 13.543 24.865 0 6.809-2.294 12.877-6.882 18.206-4.588 5.18-10.065 9.176-16.429 11.988zm125.132-57.279c-5.032-1.628-11.249-2.442-18.649-2.442-7.401 0-13.617.814-18.649 2.442-5.033 1.48-9.695 4.366-13.987 8.658-4.144 4.145-7.252 10.287-9.325 18.427-2.072 7.993-3.108 18.132-3.108 30.416 0 12.285 1.036 22.497 3.108 30.638 2.073 7.992 5.181 14.135 9.325 18.427 4.292 4.144 8.954 7.03 13.987 8.659 5.032 1.48 11.248 2.22 18.649 2.22 7.4 0 13.617-.74 18.649-2.22 5.032-1.629 9.62-4.515 13.765-8.659 4.292-4.292 7.474-10.435 9.546-18.427 2.072-8.141 3.108-18.353 3.108-30.638 0-12.284-1.036-22.423-3.108-30.416-2.072-8.14-5.254-14.282-9.546-18.427-4.145-4.292-8.733-7.178-13.765-8.658zm21.091 108.342c-7.992 10.509-21.239 15.763-39.74 15.763s-31.748-5.254-39.74-15.763c-7.993-10.508-11.989-27.455-11.989-50.84 0-23.386 3.996-40.333 11.989-50.842 7.992-10.508 21.239-15.763 39.74-15.763s31.748 5.255 39.74 15.763c7.993 10.509 11.989 27.456 11.989 50.841 0 23.386-3.996 40.333-11.989 50.841zM508.864 159V30.232h6.66L587.9 146.79V30.232h6.661V159H587.9L515.524 42.221V159h-6.66zM795.503 3.59v6.661H743.33V159h-6.66V10.251h-52.173v-6.66h111.006zm89.31 33.525c-5.032-1.628-11.249-2.442-18.649-2.442s-13.617.814-18.649 2.442c-5.032 1.48-9.695 4.366-13.987 8.658-4.144 4.145-7.252 10.287-9.324 18.427-2.073 7.993-3.109 18.132-3.109 30.416 0 12.285 1.036 22.497 3.109 30.638 2.072 7.992 5.18 14.135 9.324 18.427 4.292 4.144 8.955 7.03 13.987 8.659 5.032 1.48 11.249 2.22 18.649 2.22s13.617-.74 18.649-2.22c5.032-1.629 9.621-4.515 13.765-8.659 4.292-4.292 7.474-10.435 9.546-18.427 2.073-8.141 3.109-18.353 3.109-30.638 0-12.284-1.036-22.423-3.109-30.416-2.072-8.14-5.254-14.282-9.546-18.427-4.144-4.292-8.733-7.178-13.765-8.658zm21.091 108.342c-7.992 10.509-21.239 15.763-39.74 15.763s-31.748-5.254-39.74-15.763c-7.993-10.508-11.989-27.455-11.989-50.84 0-23.386 3.996-40.333 11.989-50.842 7.992-10.508 21.239-15.763 39.74-15.763s31.748 5.255 39.74 15.763c7.993 10.509 11.989 27.456 11.989 50.841 0 23.386-3.996 40.333-11.989 50.841zm122.876 6.883V159h-74.156V30.232h6.66V152.34h67.496zm25.58-122.108h6.66V159h-6.66V30.232zm142.69 0l-55.5 130.988-55.51-130.988h7.11l48.4 113.893 48.4-113.893h7.1zm111.26 115.669c-8.14 10.213-21.46 15.319-39.96 15.319-18.51 0-31.75-5.254-39.74-15.763-8-10.508-11.99-27.455-11.99-50.84 0-23.386 3.99-40.333 11.99-50.842 7.99-10.508 21.23-15.763 39.74-15.763 21.46 0 36.04 7.03 43.73 21.091l-54.39 45.513h-10.44l56.17-46.844c-6.51-8.733-18.2-13.1-35.07-13.1-7.4 0-13.62.815-18.65 2.443-5.04 1.48-9.7 4.366-13.99 8.658-4.14 4.145-7.25 10.287-9.32 18.427-2.08 7.993-3.11 18.132-3.11 30.416 0 12.285 1.03 22.497 3.11 30.638 2.07 7.992 5.18 14.135 9.32 18.427 4.29 4.144 8.95 7.03 13.99 8.659 5.03 1.48 11.25 2.22 18.65 2.22 16.87 0 28.56-4.367 35.07-13.099l4.89 4.44zm89.66-51.507L1428.16 159h-7.32l-31.09-66.604c.3-.148 1.56-.74 3.78-1.776 2.37-1.184 3.99-1.998 4.88-2.442.89-.592 2.37-1.554 4.44-2.886 2.07-1.332 3.63-2.59 4.66-3.775a156.26 156.26 0 0 0 3.33-4.44c1.34-1.776 2.3-3.7 2.89-5.772.59-2.22.89-4.588.89-7.105 0-9.324-4.44-16.207-13.32-20.647-8.88-4.44-19.91-6.66-33.08-6.66h-17.76V159h-6.66V30.232h24.42c17.46 0 30.64 3.035 39.52 9.103 9.03 6.068 13.54 14.357 13.54 24.865 0 6.809-2.29 12.877-6.88 18.206-4.59 5.18-10.07 9.176-16.43 11.988z"></path>
    </mask>
    <path d="M23.976 152.34h81.7L58.61 22.906 9.1 159H1.997L58.61 3.369 115.223 159H23.976v-6.66zm128.078 0h72.377L178.918 45.107 130.519 159h-7.104l55.503-130.988L234.421 159h-82.367v-6.66zm161.867-57.946L344.115 159h-7.327l-31.082-66.604c.296-.148 1.555-.74 3.775-1.776l4.884-2.442a362.52 362.52 0 0 1 4.44-2.886c2.072-1.332 3.626-2.59 4.662-3.775a170.74 170.74 0 0 0 3.331-4.44 17.626 17.626 0 0 0 2.886-5.772c.592-2.22.888-4.588.888-7.105 0-9.324-4.44-16.207-13.321-20.647-8.88-4.44-19.907-6.66-33.08-6.66H266.41V159h-6.66V30.232h24.421c17.465 0 30.638 3.035 39.518 9.103 9.029 6.068 13.543 14.357 13.543 24.865 0 6.809-2.294 12.877-6.882 18.206-4.588 5.18-10.065 9.176-16.429 11.988zm125.132-57.279c-5.032-1.628-11.249-2.442-18.649-2.442-7.401 0-13.617.814-18.649 2.442-5.033 1.48-9.695 4.366-13.987 8.658-4.144 4.145-7.252 10.287-9.325 18.427-2.072 7.993-3.108 18.132-3.108 30.416 0 12.285 1.036 22.497 3.108 30.638 2.073 7.992 5.181 14.135 9.325 18.427 4.292 4.144 8.954 7.03 13.987 8.659 5.032 1.48 11.248 2.22 18.649 2.22 7.4 0 13.617-.74 18.649-2.22 5.032-1.629 9.62-4.515 13.765-8.659 4.292-4.292 7.474-10.435 9.546-18.427 2.072-8.141 3.108-18.353 3.108-30.638 0-12.284-1.036-22.423-3.108-30.416-2.072-8.14-5.254-14.282-9.546-18.427-4.145-4.292-8.733-7.178-13.765-8.658zm21.091 108.342c-7.992 10.509-21.239 15.763-39.74 15.763s-31.748-5.254-39.74-15.763c-7.993-10.508-11.989-27.455-11.989-50.84 0-23.386 3.996-40.333 11.989-50.842 7.992-10.508 21.239-15.763 39.74-15.763s31.748 5.255 39.74 15.763c7.993 10.509 11.989 27.456 11.989 50.841 0 23.386-3.996 40.333-11.989 50.841zM508.864 159V30.232h6.66L587.9 146.79V30.232h6.661V159H587.9L515.524 42.221V159h-6.66zM795.503 3.59v6.661H743.33V159h-6.66V10.251h-52.173v-6.66h111.006zm89.31 33.525c-5.032-1.628-11.249-2.442-18.649-2.442s-13.617.814-18.649 2.442c-5.032 1.48-9.695 4.366-13.987 8.658-4.144 4.145-7.252 10.287-9.324 18.427-2.073 7.993-3.109 18.132-3.109 30.416 0 12.285 1.036 22.497 3.109 30.638 2.072 7.992 5.18 14.135 9.324 18.427 4.292 4.144 8.955 7.03 13.987 8.659 5.032 1.48 11.249 2.22 18.649 2.22s13.617-.74 18.649-2.22c5.032-1.629 9.621-4.515 13.765-8.659 4.292-4.292 7.474-10.435 9.546-18.427 2.073-8.141 3.109-18.353 3.109-30.638 0-12.284-1.036-22.423-3.109-30.416-2.072-8.14-5.254-14.282-9.546-18.427-4.144-4.292-8.733-7.178-13.765-8.658zm21.091 108.342c-7.992 10.509-21.239 15.763-39.74 15.763s-31.748-5.254-39.74-15.763c-7.993-10.508-11.989-27.455-11.989-50.84 0-23.386 3.996-40.333 11.989-50.842 7.992-10.508 21.239-15.763 39.74-15.763s31.748 5.255 39.74 15.763c7.993 10.509 11.989 27.456 11.989 50.841 0 23.386-3.996 40.333-11.989 50.841zm122.876 6.883V159h-74.156V30.232h6.66V152.34h67.496zm25.58-122.108h6.66V159h-6.66V30.232zm142.69 0l-55.5 130.988-55.51-130.988h7.11l48.4 113.893 48.4-113.893h7.1zm111.26 115.669c-8.14 10.213-21.46 15.319-39.96 15.319-18.51 0-31.75-5.254-39.74-15.763-8-10.508-11.99-27.455-11.99-50.84 0-23.386 3.99-40.333 11.99-50.842 7.99-10.508 21.23-15.763 39.74-15.763 21.46 0 36.04 7.03 43.73 21.091l-54.39 45.513h-10.44l56.17-46.844c-6.51-8.733-18.2-13.1-35.07-13.1-7.4 0-13.62.815-18.65 2.443-5.04 1.48-9.7 4.366-13.99 8.658-4.14 4.145-7.25 10.287-9.32 18.427-2.08 7.993-3.11 18.132-3.11 30.416 0 12.285 1.03 22.497 3.11 30.638 2.07 7.992 5.18 14.135 9.32 18.427 4.29 4.144 8.95 7.03 13.99 8.659 5.03 1.48 11.25 2.22 18.65 2.22 16.87 0 28.56-4.367 35.07-13.099l4.89 4.44zm89.66-51.507L1428.16 159h-7.32l-31.09-66.604c.3-.148 1.56-.74 3.78-1.776 2.37-1.184 3.99-1.998 4.88-2.442.89-.592 2.37-1.554 4.44-2.886 2.07-1.332 3.63-2.59 4.66-3.775a156.26 156.26 0 0 0 3.33-4.44c1.34-1.776 2.3-3.7 2.89-5.772.59-2.22.89-4.588.89-7.105 0-9.324-4.44-16.207-13.32-20.647-8.88-4.44-19.91-6.66-33.08-6.66h-17.76V159h-6.66V30.232h24.42c17.46 0 30.64 3.035 39.52 9.103 9.03 6.068 13.54 14.357 13.54 24.865 0 6.809-2.29 12.877-6.88 18.206-4.59 5.18-10.07 9.176-16.43 11.988z"
      stroke="#8CC2D3" stroke-width="2" mask="url(#a)"></path>
  </symbol>
</svg>