<svg width="0" height="0" class="hidden">
  <symbol viewBox="0 0 1430 164" fill="none" xmlns="http://www.w3.org/2000/svg" id="title">
    <mask id="a" maskUnits="userSpaceOnUse" x="0" y="0" width="1430" height="164" fill="#000">
      <path fill="#fff" d="M0 0h1430v164H0z"></path>
      <path d="M23.98 151.971h81.7L58.613 22.537 9.104 158.631H2L58.613 3l56.614 155.631H23.979v-6.66zm128.078 0h72.376L178.922 44.738l-48.399 113.893h-7.105l55.504-130.988 55.503 130.988h-82.367v-6.66zm161.867-57.946l30.193 64.606h-7.326L305.71 92.027c.296-.148 1.554-.74 3.774-1.776l4.885-2.442a362.52 362.52 0 0 1 4.44-2.886c2.072-1.332 3.626-2.59 4.662-3.775a172.968 172.968 0 0 0 3.33-4.44 17.626 17.626 0 0 0 2.886-5.772c.593-2.22.889-4.588.889-7.105 0-9.324-4.441-16.206-13.321-20.647-8.881-4.44-19.907-6.66-33.08-6.66h-17.761V158.63h-6.661V29.864h24.422c17.465 0 30.638 3.034 39.518 9.102 9.029 6.068 13.543 14.357 13.543 24.865 0 6.809-2.294 12.877-6.882 18.206-4.589 5.18-10.065 9.176-16.429 11.988zm125.132-57.279c-5.033-1.628-11.249-2.442-18.65-2.442-7.4 0-13.616.814-18.649 2.442-5.032 1.48-9.694 4.366-13.986 8.658-4.145 4.145-7.253 10.287-9.325 18.427-2.072 7.993-3.108 18.132-3.108 30.416 0 12.285 1.036 22.498 3.108 30.638 2.072 7.993 5.18 14.135 9.325 18.427 4.292 4.144 8.954 7.031 13.986 8.659 5.033 1.48 11.249 2.22 18.649 2.22 7.401 0 13.617-.74 18.65-2.22 5.032-1.628 9.62-4.515 13.764-8.659 4.293-4.292 7.475-10.434 9.547-18.427 2.072-8.14 3.108-18.353 3.108-30.638 0-12.284-1.036-22.423-3.108-30.416-2.072-8.14-5.254-14.282-9.547-18.427-4.144-4.292-8.732-7.178-13.764-8.658zm21.091 108.342c-7.993 10.509-21.239 15.763-39.741 15.763-18.501 0-31.747-5.254-39.74-15.763-7.992-10.508-11.989-27.455-11.989-50.84 0-23.386 3.997-40.333 11.989-50.842 7.993-10.508 21.239-15.763 39.74-15.763 18.502 0 31.748 5.255 39.741 15.763 7.992 10.509 11.988 27.456 11.988 50.841 0 23.386-3.996 40.333-11.988 50.841zm48.719 13.543V29.864h6.661l72.376 116.556V29.864h6.66V158.63h-6.66L515.528 41.852v116.779h-6.661zM795.507 3.222v6.66h-52.173v148.749h-6.66V9.882H684.5v-6.66h111.007zm89.31 33.524c-5.033-1.628-11.249-2.442-18.649-2.442-7.401 0-13.617.814-18.649 2.442-5.033 1.48-9.695 4.366-13.987 8.658-4.144 4.145-7.253 10.287-9.325 18.427-2.072 7.993-3.108 18.132-3.108 30.416 0 12.285 1.036 22.498 3.108 30.638 2.072 7.993 5.181 14.135 9.325 18.427 4.292 4.144 8.954 7.031 13.987 8.659 5.032 1.48 11.248 2.22 18.649 2.22 7.4 0 13.616-.74 18.649-2.22 5.032-1.628 9.62-4.515 13.765-8.659 4.292-4.292 7.474-10.434 9.546-18.427 2.072-8.14 3.108-18.353 3.108-30.638 0-12.284-1.036-22.423-3.108-30.416-2.072-8.14-5.254-14.282-9.546-18.427-4.145-4.292-8.733-7.178-13.765-8.658zm21.091 108.342c-7.992 10.509-21.239 15.763-39.74 15.763s-31.748-5.254-39.741-15.763c-7.992-10.508-11.988-27.455-11.988-50.84 0-23.386 3.996-40.333 11.988-50.842 7.993-10.508 21.24-15.763 39.741-15.763s31.748 5.255 39.74 15.763c7.992 10.509 11.989 27.456 11.989 50.841 0 23.386-3.997 40.333-11.989 50.841zm122.872 6.883v6.66h-74.152V29.864h6.66V151.97h67.492zm25.58-122.107h6.66V158.63h-6.66V29.864zm142.69 0l-55.5 130.987-55.5-130.987h7.1l48.4 113.892 48.4-113.892h7.1zm111.26 115.668c-8.14 10.213-21.46 15.319-39.96 15.319s-31.75-5.254-39.74-15.763c-7.99-10.508-11.99-27.455-11.99-50.84 0-23.386 4-40.333 11.99-50.842 7.99-10.508 21.24-15.763 39.74-15.763 21.46 0 36.04 7.03 43.74 21.092l-54.4 45.512h-10.43l56.17-46.844c-6.52-8.733-18.21-13.1-35.08-13.1-7.4 0-13.62.815-18.65 2.443-5.03 1.48-9.69 4.366-13.99 8.658-4.14 4.145-7.25 10.287-9.32 18.427-2.07 7.993-3.11 18.132-3.11 30.416 0 12.285 1.04 22.498 3.11 30.638 2.07 7.993 5.18 14.135 9.32 18.427 4.3 4.144 8.96 7.031 13.99 8.659 5.03 1.48 11.25 2.22 18.65 2.22 16.87 0 28.56-4.367 35.08-13.099l4.88 4.44zm89.66-51.507l30.2 64.606h-7.33l-31.08-66.604c.29-.148 1.55-.74 3.77-1.776l4.89-2.442c.88-.592 2.36-1.554 4.44-2.886 2.07-1.332 3.62-2.59 4.66-3.775 1.03-1.331 2.14-2.812 3.33-4.44a17.61 17.61 0 0 0 2.88-5.772c.6-2.22.89-4.588.89-7.105 0-9.324-4.44-16.206-13.32-20.647-8.88-4.44-19.91-6.66-33.08-6.66h-17.76V158.63h-6.66V29.864h24.42c17.47 0 30.64 3.034 39.52 9.102 9.03 6.068 13.54 14.357 13.54 24.865 0 6.809-2.29 12.877-6.88 18.206-4.59 5.18-10.06 9.176-16.43 11.988z"></path>
    </mask>
    <path d="M23.98 151.971h81.7L58.613 22.537 9.104 158.631H2L58.613 3l56.614 155.631H23.979v-6.66zm128.078 0h72.376L178.922 44.738l-48.399 113.893h-7.105l55.504-130.988 55.503 130.988h-82.367v-6.66zm161.867-57.946l30.193 64.606h-7.326L305.71 92.027c.296-.148 1.554-.74 3.774-1.776l4.885-2.442a362.52 362.52 0 0 1 4.44-2.886c2.072-1.332 3.626-2.59 4.662-3.775a172.968 172.968 0 0 0 3.33-4.44 17.626 17.626 0 0 0 2.886-5.772c.593-2.22.889-4.588.889-7.105 0-9.324-4.441-16.206-13.321-20.647-8.881-4.44-19.907-6.66-33.08-6.66h-17.761V158.63h-6.661V29.864h24.422c17.465 0 30.638 3.034 39.518 9.102 9.029 6.068 13.543 14.357 13.543 24.865 0 6.809-2.294 12.877-6.882 18.206-4.589 5.18-10.065 9.176-16.429 11.988zm125.132-57.279c-5.033-1.628-11.249-2.442-18.65-2.442-7.4 0-13.616.814-18.649 2.442-5.032 1.48-9.694 4.366-13.986 8.658-4.145 4.145-7.253 10.287-9.325 18.427-2.072 7.993-3.108 18.132-3.108 30.416 0 12.285 1.036 22.498 3.108 30.638 2.072 7.993 5.18 14.135 9.325 18.427 4.292 4.144 8.954 7.031 13.986 8.659 5.033 1.48 11.249 2.22 18.649 2.22 7.401 0 13.617-.74 18.65-2.22 5.032-1.628 9.62-4.515 13.764-8.659 4.293-4.292 7.475-10.434 9.547-18.427 2.072-8.14 3.108-18.353 3.108-30.638 0-12.284-1.036-22.423-3.108-30.416-2.072-8.14-5.254-14.282-9.547-18.427-4.144-4.292-8.732-7.178-13.764-8.658zm21.091 108.342c-7.993 10.509-21.239 15.763-39.741 15.763-18.501 0-31.747-5.254-39.74-15.763-7.992-10.508-11.989-27.455-11.989-50.84 0-23.386 3.997-40.333 11.989-50.842 7.993-10.508 21.239-15.763 39.74-15.763 18.502 0 31.748 5.255 39.741 15.763 7.992 10.509 11.988 27.456 11.988 50.841 0 23.386-3.996 40.333-11.988 50.841zm48.719 13.543V29.864h6.661l72.376 116.556V29.864h6.66V158.63h-6.66L515.528 41.852v116.779h-6.661zM795.507 3.222v6.66h-52.173v148.749h-6.66V9.882H684.5v-6.66h111.007zm89.31 33.524c-5.033-1.628-11.249-2.442-18.649-2.442-7.401 0-13.617.814-18.649 2.442-5.033 1.48-9.695 4.366-13.987 8.658-4.144 4.145-7.253 10.287-9.325 18.427-2.072 7.993-3.108 18.132-3.108 30.416 0 12.285 1.036 22.498 3.108 30.638 2.072 7.993 5.181 14.135 9.325 18.427 4.292 4.144 8.954 7.031 13.987 8.659 5.032 1.48 11.248 2.22 18.649 2.22 7.4 0 13.616-.74 18.649-2.22 5.032-1.628 9.62-4.515 13.765-8.659 4.292-4.292 7.474-10.434 9.546-18.427 2.072-8.14 3.108-18.353 3.108-30.638 0-12.284-1.036-22.423-3.108-30.416-2.072-8.14-5.254-14.282-9.546-18.427-4.145-4.292-8.733-7.178-13.765-8.658zm21.091 108.342c-7.992 10.509-21.239 15.763-39.74 15.763s-31.748-5.254-39.741-15.763c-7.992-10.508-11.988-27.455-11.988-50.84 0-23.386 3.996-40.333 11.988-50.842 7.993-10.508 21.24-15.763 39.741-15.763s31.748 5.255 39.74 15.763c7.992 10.509 11.989 27.456 11.989 50.841 0 23.386-3.997 40.333-11.989 50.841zm122.872 6.883v6.66h-74.152V29.864h6.66V151.97h67.492zm25.58-122.107h6.66V158.63h-6.66V29.864zm142.69 0l-55.5 130.987-55.5-130.987h7.1l48.4 113.892 48.4-113.892h7.1zm111.26 115.668c-8.14 10.213-21.46 15.319-39.96 15.319s-31.75-5.254-39.74-15.763c-7.99-10.508-11.99-27.455-11.99-50.84 0-23.386 4-40.333 11.99-50.842 7.99-10.508 21.24-15.763 39.74-15.763 21.46 0 36.04 7.03 43.74 21.092l-54.4 45.512h-10.43l56.17-46.844c-6.52-8.733-18.21-13.1-35.08-13.1-7.4 0-13.62.815-18.65 2.443-5.03 1.48-9.69 4.366-13.99 8.658-4.14 4.145-7.25 10.287-9.32 18.427-2.07 7.993-3.11 18.132-3.11 30.416 0 12.285 1.04 22.498 3.11 30.638 2.07 7.993 5.18 14.135 9.32 18.427 4.3 4.144 8.96 7.031 13.99 8.659 5.03 1.48 11.25 2.22 18.65 2.22 16.87 0 28.56-4.367 35.08-13.099l4.88 4.44zm89.66-51.507l30.2 64.606h-7.33l-31.08-66.604c.29-.148 1.55-.74 3.77-1.776l4.89-2.442c.88-.592 2.36-1.554 4.44-2.886 2.07-1.332 3.62-2.59 4.66-3.775 1.03-1.331 2.14-2.812 3.33-4.44a17.61 17.61 0 0 0 2.88-5.772c.6-2.22.89-4.588.89-7.105 0-9.324-4.44-16.206-13.32-20.647-8.88-4.44-19.91-6.66-33.08-6.66h-17.76V158.63h-6.66V29.864h24.42c17.47 0 30.64 3.034 39.52 9.102 9.03 6.068 13.54 14.357 13.54 24.865 0 6.809-2.29 12.877-6.88 18.206-4.59 5.18-10.06 9.176-16.43 11.988z"
      stroke="#4C6E8B" stroke-width="2" mask="url(#a)"></path>
  </symbol>
</svg>

<svg width="0" height="0" class="hidden">
  <symbol viewBox="0 0 283 604" fill="none" xmlns="http://www.w3.org/2000/svg" id="logo">
    <path d="M269.201 116.502v15.45H148.176V477h-15.45V131.952H11.702v-15.45h257.499z" fill="#7F3333"></path>
    <path d="M60.255 461.55h189.519l-109.18-300.243L25.75 477H9.27l131.324-361.013L271.918 477H60.255v-15.45z" fill="#AF9880"></path>
  </symbol>
</svg>